HIERARCHY
ROOT Hips
{
	OFFSET 0.000000 88.474243 0.000000
	CHANNELS 6 Xposition Yposition Zposition Zrotation Yrotation Xrotation 
	JOINT Hips_Spine
	{
		OFFSET 0.000000 0.000000 0.000000
		CHANNELS 3 Zrotation Yrotation Xrotation
		JOINT Spine
		{
			OFFSET 0.005100 8.711998 -0.691000
			CHANNELS 3 Zrotation Yrotation Xrotation
			JOINT Spine1
			{
				OFFSET -0.009200 8.660301 -1.275000
				CHANNELS 3 Zrotation Yrotation Xrotation
				JOINT Spine2
				{
					OFFSET 0.006300 9.852501 -1.857000
					CHANNELS 3 Zrotation Yrotation Xrotation
					JOINT Spine2_Neck
					{
						OFFSET 0.000000 0.000000 0.000000
						CHANNELS 3 Zrotation Yrotation Xrotation
						JOINT Neck
						{
							OFFSET 0.016300 11.420799 -0.263300
							CHANNELS 3 Zrotation Yrotation Xrotation
							End Site #name: Head
							{
								OFFSET -0.019200 9.262405 2.362500
							}
						}
					}
					JOINT Spine2_LeftShoulder
					{
						OFFSET 0.000000 0.000000 0.000000
						CHANNELS 3 Zrotation Yrotation Xrotation
						JOINT LeftShoulder
						{
							OFFSET 5.616900 6.732201 -0.345700
							CHANNELS 3 Zrotation Yrotation Xrotation
							JOINT LeftArm
							{
								OFFSET 10.664888 -0.183372 -2.440700
								CHANNELS 3 Zrotation Yrotation Xrotation
								JOINT LeftForeArm
								{
									OFFSET 27.459126 0.000000 0.000000
									CHANNELS 3 Zrotation Yrotation Xrotation
									End Site #name: LeftHand
									{
										OFFSET 21.306858 0.000000 0.000000
									}
								}
							}
						}
					}
					JOINT Spine2_RightShoulder
					{
						OFFSET 0.000000 0.000000 0.000000
						CHANNELS 3 Zrotation Yrotation Xrotation
						JOINT RightShoulder
						{
							OFFSET -5.580300 6.737503 -0.344400
							CHANNELS 3 Zrotation Yrotation Xrotation
							JOINT RightArm
							{
								OFFSET -10.679335 -0.188484 -2.383900
								CHANNELS 3 Zrotation Yrotation Xrotation
								JOINT RightForeArm
								{
									OFFSET -27.503529 0.000000 0.000000
									CHANNELS 3 Zrotation Yrotation Xrotation
									End Site #name: RightHand
									{
										OFFSET -21.306808 0.000000 0.000000
									}
								}
							}
						}
					}
				}
			}
		}
	}
	JOINT Hips_LeftUpLeg
	{
		OFFSET 0.000000 0.000000 0.000000
		CHANNELS 3 Zrotation Yrotation Xrotation
		JOINT LeftUpLeg
		{
			OFFSET 6.857700 -6.739601 0.312100
			CHANNELS 3 Zrotation Yrotation Xrotation
			JOINT LeftLeg
			{
				OFFSET -0.367590 -34.731552 -4.572400
				CHANNELS 3 Zrotation Yrotation Xrotation
				End Site #name: LeftFoot
				{
					OFFSET 0.367590 -34.656704 -6.067400
				}
			}
		}
	}
	JOINT Hips_RightUpLeg
	{
		OFFSET 0.000000 0.000000 0.000000
		CHANNELS 3 Zrotation Yrotation Xrotation
		JOINT RightUpLeg
		{
			OFFSET -6.876100 -6.733299 0.301000
			CHANNELS 3 Zrotation Yrotation Xrotation
			JOINT RightLeg
			{
				OFFSET 0.347353 -34.795158 -4.515900
				CHANNELS 3 Zrotation Yrotation Xrotation
				End Site #name: RightFoot
				{
					OFFSET -0.347353 -34.589367 -6.070300
				}
			}
		}
	}
}
MOTION
Frames: 6
Frame Time: 0.041667
-0.062125 0.079483 0.023212 -4.026260 0.022159 -1.938236 -0.000000 0.000000 0.000000 -0.733608 0.854792 5.641003 -1.727588 1.351377 9.905262 0.000000 0.000000 0.000000 -1.985576 1.345678 9.334933 -1.113758 -3.597281 4.254095 -2.027229 1.213876 10.247319 -0.969994 -0.662909 0.272973 -68.585612 -24.498414 21.323330 170.170492 -85.666955 -170.395955 -1.921841 1.732978 10.803014 -5.133656 -0.670466 1.350335 78.879161 -5.756791 5.034142 176.437039 82.854629 178.310686 0.000000 -0.000000 0.000000 7.312363 1.188406 -19.626043 -1.212503 0.531015 34.237539 -0.000000 0.000000 -0.000000 -3.756548 -2.539063 -15.883602 -0.249548 -2.087915 26.849224 
0.059060 0.099161 0.127386 -5.083337 -4.431583 -1.689399 -0.000000 0.000000 0.000000 -0.723746 0.485440 5.166439 -2.148661 1.436120 10.289173 0.000000 0.000000 0.000000 -1.884468 1.386737 10.339238 -1.987316 -4.071597 5.425289 -2.079104 1.510344 10.890970 0.702630 1.132673 -0.215801 -68.335099 -22.997306 31.694163 179.104611 -83.468408 -179.111380 -1.970880 1.220298 10.394566 -5.591284 -2.321889 0.664689 84.308010 -8.427298 6.337037 -169.509124 86.323356 -169.745844 0.000000 -0.000000 0.000000 7.374546 0.201900 -22.924938 -0.672537 0.871778 33.222421 0.000000 0.000000 -0.000000 -2.717647 -3.474270 -16.537917 0.986582 -0.471449 26.223187 
0.206477 0.089804 0.121149 -4.519831 -6.700203 -2.598059 -0.000000 -0.000000 -0.000000 -0.684229 0.479312 4.965252 -2.193610 1.400403 10.207314 0.000000 0.000000 0.000000 -2.184551 1.576902 11.082458 -1.829563 -3.614873 4.754356 -1.892556 1.595057 10.630154 1.024608 0.705718 -0.208102 -70.009023 -17.638964 32.644903 -177.788541 -82.557469 177.702003 -2.047266 1.397241 10.400730 -3.953491 -2.113943 0.799576 83.607908 -7.574068 9.205407 -168.854559 86.311104 -169.243542 0.000000 -0.000000 0.000000 7.539043 0.913992 -23.019706 -0.799060 0.562030 34.267101 0.000000 0.000000 -0.000000 -2.469967 -3.408541 -16.604413 0.616233 -0.926883 25.301524 
0.297656 0.051549 0.091655 -4.127297 -7.458776 -3.001033 0.000000 -0.000000 -0.000000 -0.575546 0.574543 4.794911 -2.095630 1.564361 10.200789 0.000000 0.000000 0.000000 -2.013985 1.658639 10.575062 -1.747160 -3.826953 5.196700 -1.902073 1.663654 10.347432 1.802805 0.377428 -0.005495 -70.678469 -17.164582 32.382835 -177.201638 -83.714240 177.135244 -2.079559 1.569588 10.283569 -3.893176 -1.458311 1.194446 82.256885 -7.226841 9.177518 -171.066410 84.650410 -171.623253 0.000000 -0.000000 0.000000 7.437763 1.151121 -23.251785 -1.149681 0.445954 34.977898 0.000000 0.000000 0.000000 -2.067008 -3.163917 -17.031245 0.465063 -0.734114 25.853382 
0.366534 0.042795 0.135322 -4.315470 -7.037191 -2.897137 -0.000000 -0.000000 0.000000 -0.513847 0.714191 4.819582 -2.011878 1.603295 10.087758 0.000000 0.000000 0.000000 -1.946480 1.647719 10.144567 -1.560470 -3.942591 5.183096 -1.960771 1.657890 10.138454 2.008370 0.312239 0.156113 -70.844526 -18.204738 31.846903 -175.227346 -84.800957 175.474391 -2.084786 1.621458 10.232192 -3.988335 -2.079441 1.301570 81.786183 -8.248852 7.960936 -169.912117 84.368970 -170.508485 0.000000 -0.000000 0.000000 6.999876 1.106215 -22.943260 -1.209966 0.548956 34.824184 -0.000000 0.000000 0.000000 -2.073671 -3.151743 -17.234125 0.519656 -0.600236 26.014359 
0.451798 0.059093 0.217041 -4.553978 -6.184133 -2.838545 -0.000000 -0.000000 0.000000 -0.493074 0.819013 4.794373 -1.923068 1.555344 9.900563 0.000000 0.000000 0.000000 -1.907762 1.566522 9.960938 -1.365990 -3.809145 5.016948 -1.951661 1.593477 9.917635 1.865623 0.431566 0.178365 -71.196390 -18.850712 31.055521 -174.169378 -85.213893 174.478473 -2.056830 1.603440 10.152965 -4.333582 -2.508568 1.264617 82.069177 -8.937703 7.295331 -170.228214 84.224701 -170.758680 0.000000 0.000000 0.000000 6.736136 1.140835 -22.571708 -1.167890 0.699571 34.423844 -0.000000 -0.000000 0.000000 -2.431609 -3.224768 -16.889353 0.487050 -0.691115 25.663295 
